<svg xmlns="http://www.w3.org/2000/svg" viewBox="0 0 512 512" role="img" aria-labelledby="title desc">
  <title id="title">Heartlux maskable icon</title>
  <desc id="desc">A maskable magenta heart mark for install surfaces.</desc>
  <rect width="512" height="512" fill="#cc328c"/>
  <circle cx="256" cy="256" r="232" fill="#cc328c"/>
  <path fill="#ffffff" d="M256 386c-12-10-34-27-66-51-38-29-65-55-82-80-18-25-26-51-23-79 4-29 19-52 43-68 36-23 81-15 111 20 30-35 75-43 111-20 24 16 39 39 43 68 3 28-5 54-23 79-17 25-44 51-82 80-32 24-54 41-66 51z"/>
</svg>
